<svg width="24" height="24" viewBox="0 0 24 24" fill="none" xmlns="http://www.w3.org/2000/svg">
<path fill-rule="evenodd" clip-rule="evenodd" d="M3.85002 11.9999C3.85002 9.99105 3.85029 8.45408 3.91141 7.26218C3.97333 6.05464 4.09509 5.30094 4.28923 4.81558C4.45864 4.39205 4.66921 4.20029 4.9956 4.07336C5.39632 3.91752 6.00387 3.8499 7.00002 3.8499C7.97383 3.8499 8.65326 3.91163 9.12813 4.01716C9.60149 4.12235 9.80451 4.25647 9.89898 4.35094C9.98323 4.43519 10.0546 4.56035 10.0991 4.82714C10.1476 5.11829 10.15 5.47834 10.15 5.9999C10.15 6.46934 10.5306 6.8499 11 6.8499C11.4695 6.8499 11.85 6.46934 11.85 5.9999L11.85 5.95733V5.95731C11.8501 5.49102 11.8502 4.99293 11.776 4.54766C11.6954 4.06445 11.5168 3.56462 11.1011 3.14886C10.6955 2.74333 10.1486 2.50245 9.49692 2.35764C8.84679 2.21317 8.02622 2.1499 7.00002 2.1499C5.99618 2.1499 5.10373 2.20728 4.37945 2.48895C3.58084 2.79952 3.04141 3.35775 2.71082 4.18422C2.40496 4.94886 2.27671 5.94517 2.21364 7.17512C2.15002 8.41562 2.15002 9.99574 2.15002 11.9754V11.9756V11.9999V12.0242V12.0244C2.15002 14.0041 2.15002 15.5842 2.21364 16.8247C2.27671 18.0546 2.40496 19.0509 2.71082 19.8156C3.04141 20.642 3.58084 21.2003 4.37945 21.5109C5.10373 21.7925 5.99618 21.8499 7.00002 21.8499C8.02622 21.8499 8.84679 21.7866 9.49692 21.6422C10.1486 21.4974 10.6955 21.2565 11.1011 20.8509C11.5168 20.4352 11.6954 19.9354 11.776 19.4521C11.8502 19.0069 11.8501 18.5088 11.85 18.0425V18.0425L11.85 17.9999C11.85 17.5305 11.4695 17.1499 11 17.1499C10.5306 17.1499 10.15 17.5305 10.15 17.9999C10.15 18.5215 10.1476 18.8815 10.0991 19.1727C10.0546 19.4395 9.98323 19.5646 9.89898 19.6489C9.80451 19.7433 9.60149 19.8775 9.12813 19.9826C8.65326 20.0882 7.97383 20.1499 7.00002 20.1499C6.00387 20.1499 5.39632 20.0823 4.9956 19.9264C4.66921 19.7995 4.45864 19.6078 4.28923 19.1842C4.09509 18.6989 3.97333 17.9452 3.91141 16.7376C3.85029 15.5457 3.85002 14.0088 3.85002 11.9999ZM17.6011 7.39886C17.2691 7.06692 16.7309 7.06692 16.399 7.39886C16.067 7.73081 16.067 8.269 16.399 8.60094L18.9479 11.1499H11C10.5306 11.1499 10.15 11.5305 10.15 11.9999C10.15 12.4693 10.5306 12.8499 11 12.8499H18.9479L16.399 15.3989C16.067 15.7308 16.067 16.269 16.399 16.6009C16.7309 16.9329 17.2691 16.9329 17.6011 16.6009L21.6011 12.6009C21.933 12.269 21.933 11.7308 21.6011 11.3989L17.6011 7.39886Z" fill="#FF3B30"/>
</svg>
