<svg width="22" height="22" viewBox="0 0 22 22" fill="none" xmlns="http://www.w3.org/2000/svg">
<path d="M10 21C9.182 21 8.4 20.67 6.837 20.01C2.946 18.366 1 17.543 1 16.16V6M10 21V10.355M10 21C10.34 21 10.646 20.943 11 20.828M19 6V10.5M4 11L6 12M15 3L5 8M19.132 19.159L21 21M6.326 8.691L3.405 7.278C1.802 6.502 1 6.114 1 5.5C1 4.886 1.802 4.498 3.405 3.722L6.325 2.309C8.13 1.436 9.03 1 10 1C10.97 1 11.871 1.436 13.674 2.309L16.595 3.722C18.198 4.498 19 4.886 19 5.5C19 6.114 18.198 6.502 16.595 7.278L13.675 8.691C11.87 9.564 10.97 10 10 10C9.03 10 8.129 9.564 6.326 8.691ZM20.207 16.596C20.2066 17.0688 20.1131 17.5368 19.9318 17.9734C19.7505 18.4101 19.485 18.8067 19.1505 19.1407C18.8159 19.4747 18.4188 19.7396 17.9819 19.9201C17.545 20.1007 17.0768 20.1934 16.604 20.193C16.1312 20.1935 15.6628 20.1009 15.2258 19.9204C14.7888 19.7399 14.3916 19.4751 14.0569 19.1411C13.7222 18.807 13.4566 18.4103 13.2753 17.9737C13.0939 17.537 13.0004 17.0688 13 16.596C13.0005 16.1232 13.0942 15.6552 13.2756 15.2186C13.457 14.7821 13.7226 14.3855 14.0572 14.0516C14.3919 13.7177 14.7891 13.4529 15.226 13.2725C15.663 13.0921 16.1312 12.9995 16.604 13C17.5586 12.9992 18.4744 13.3776 19.1501 14.0519C19.8258 14.7263 20.2059 15.6414 20.207 16.596Z" stroke="#797D85" stroke-width="1.5" stroke-linecap="round" stroke-linejoin="round"/>
</svg>
