<svg width="31" height="24" viewBox="0 0 31 24" fill="none" xmlns="http://www.w3.org/2000/svg">
<path d="M15.0285 7.92139C14.9042 7.92139 14.785 7.97196 14.6971 8.06198C14.6092 8.15199 14.5598 8.27408 14.5598 8.40139V10.8801H12.1392C12.0148 10.8801 11.8956 10.9307 11.8077 11.0207C11.7198 11.1107 11.6704 11.2328 11.6704 11.3601C11.6704 11.4874 11.7198 11.6095 11.8077 11.6995C11.8956 11.7895 12.0148 11.8401 12.1392 11.8401H14.5598V14.3195C14.5598 14.4468 14.6092 14.5689 14.6971 14.6589C14.785 14.7489 14.9042 14.7995 15.0285 14.7995C15.1529 14.7995 15.2721 14.7489 15.36 14.6589C15.4479 14.5689 15.4973 14.4468 15.4973 14.3195V11.8401H17.9185C18.0429 11.8401 18.1621 11.7895 18.25 11.6995C18.3379 11.6095 18.3873 11.4874 18.3873 11.3601C18.3873 11.2328 18.3379 11.1107 18.25 11.0207C18.1621 10.9307 18.0429 10.8801 17.9185 10.8801H15.4973V8.40139C15.4973 8.27408 15.4479 8.15199 15.36 8.06198C15.2721 7.97196 15.1529 7.92139 15.0285 7.92139Z" fill="#797D85"/>
<path fill-rule="evenodd" clip-rule="evenodd" d="M9.25 11.3593C9.25 8.08954 11.8388 5.43994 15.0312 5.43994C18.2238 5.43994 20.8125 8.08954 20.8125 11.3587C20.8151 12.7637 20.327 14.1235 19.4363 15.1923L21.6119 17.4195C21.6567 17.4637 21.6924 17.5167 21.717 17.5752C21.7416 17.6338 21.7545 17.6967 21.7551 17.7605C21.7557 17.8242 21.7439 17.8874 21.7203 17.9464C21.6968 18.0054 21.662 18.059 21.618 18.1041C21.574 18.1492 21.5217 18.1849 21.4641 18.209C21.4065 18.2332 21.3448 18.2454 21.2825 18.2449C21.2203 18.2443 21.1588 18.2311 21.1016 18.206C21.0444 18.1809 20.9926 18.1443 20.9494 18.0985L18.7731 15.8707C17.7295 16.7814 16.4024 17.2803 15.0312 17.2774C11.8388 17.2774 9.25 14.6284 9.25 11.3593ZM15.0312 6.39994C14.3888 6.38937 13.7507 6.50982 13.1541 6.75428C12.5575 6.99873 12.0144 7.3623 11.5565 7.82381C11.0985 8.28532 10.7347 8.83553 10.4865 9.44241C10.2382 10.0493 10.1103 10.7007 10.1103 11.3587C10.1103 12.0166 10.2382 12.668 10.4865 13.2749C10.7347 13.8818 11.0985 14.432 11.5565 14.8935C12.0144 15.355 12.5575 15.7186 13.1541 15.963C13.7507 16.2075 14.3888 16.328 15.0312 16.3174C15.6737 16.328 16.3118 16.2075 16.9084 15.963C17.505 15.7186 18.0481 15.355 18.506 14.8935C18.964 14.432 19.3278 13.8818 19.576 13.2749C19.8243 12.668 19.9522 12.0166 19.9522 11.3587C19.9522 10.7007 19.8243 10.0493 19.576 9.44241C19.3278 8.83553 18.964 8.28532 18.506 7.82381C18.0481 7.3623 17.505 6.99873 16.9084 6.75428C16.3118 6.50982 15.6737 6.38937 15.0312 6.39994Z" fill="#797D85"/>
</svg>
