<svg width="24" height="24" viewBox="0 0 24 24" fill="none" xmlns="http://www.w3.org/2000/svg">
<path fill-rule="evenodd" clip-rule="evenodd" d="M11.55 3.85002C16.0806 3.85002 19.7 7.46947 19.7 12C19.7 12.9993 19.518 13.9914 19.1608 14.8843C19.0778 15.0919 19.0799 15.3238 19.1666 15.5299L20.2698 18.15H17.15C16.957 18.15 16.7697 18.2157 16.619 18.3363C15.2548 19.4277 13.4387 20.15 11.55 20.15C7.01945 20.15 3.40001 16.5306 3.40001 12C3.40001 7.46947 7.01945 3.85002 11.55 3.85002ZM21.4 12C21.4 6.53058 17.0195 2.15002 11.55 2.15002C6.08057 2.15002 1.70001 6.53058 1.70001 12C1.70001 17.4695 6.08057 21.85 11.55 21.85C13.7499 21.85 15.8343 21.055 17.4406 19.85H21.2488C21.9997 19.85 22.5079 19.0847 22.2165 18.3926L20.8648 15.1822C21.2233 14.1682 21.4 13.0812 21.4 12ZM7.55003 11.35C6.9149 11.35 6.40003 11.8649 6.40003 12.5C6.40003 13.1352 6.9149 13.65 7.55003 13.65C8.18516 13.65 8.70003 13.1352 8.70003 12.5C8.70003 11.8649 8.18516 11.35 7.55003 11.35ZM11.55 11.35C10.9149 11.35 10.4 11.8649 10.4 12.5C10.4 13.1352 10.9149 13.65 11.55 13.65C12.1852 13.65 12.7 13.1352 12.7 12.5C12.7 11.8649 12.1852 11.35 11.55 11.35ZM15.55 11.35C14.9149 11.35 14.4 11.8649 14.4 12.5C14.4 13.1352 14.9149 13.65 15.55 13.65C16.1852 13.65 16.7 13.1352 16.7 12.5C16.7 11.8649 16.1852 11.35 15.55 11.35Z" fill="#797D85"/>
</svg>
