<svg width="24" height="24" viewBox="0 0 24 24" fill="none" xmlns="http://www.w3.org/2000/svg">
<path d="M10.3301 18.5674C10.5027 18.5674 10.668 18.6445 10.79 18.7812C10.9121 18.918 10.9814 19.1034 10.9814 19.2969C10.9814 19.4904 10.9121 19.6766 10.79 19.8135C10.668 19.9501 10.5025 20.0264 10.3301 20.0264H1.65137C1.47877 20.0264 1.3125 19.9503 1.19043 19.8135C1.06835 19.6766 1 19.4904 1 19.2969C1.00005 19.1035 1.06851 18.918 1.19043 18.7812C1.31251 18.6444 1.47873 18.5674 1.65137 18.5674H10.3301ZM8.59473 10.7832C8.76716 10.7833 8.93272 10.8604 9.05469 10.9971C9.17676 11.1339 9.24512 11.3201 9.24512 11.5137C9.24506 11.7071 9.17666 11.8925 9.05469 12.0293C8.9327 12.166 8.76723 12.243 8.59473 12.2432H1.65137C1.47873 12.2432 1.31251 12.1661 1.19043 12.0293C1.0685 11.8925 1.00006 11.707 1 11.5137C1 11.3201 1.06835 11.1339 1.19043 10.9971C1.3125 10.8603 1.47876 10.7832 1.65137 10.7832H8.59473ZM20.7451 3C20.9178 3 21.084 3.07702 21.2061 3.21387C21.3279 3.35063 21.3964 3.53619 21.3965 3.72949C21.3965 3.92301 21.3281 4.10925 21.2061 4.24609C21.084 4.38294 20.9178 4.45898 20.7451 4.45898H1.65137C1.47877 4.45898 1.3125 4.38288 1.19043 4.24609C1.06835 4.10924 1 3.92303 1 3.72949C1.00005 3.53613 1.06851 3.35064 1.19043 3.21387C1.31251 3.07702 1.47873 3 1.65137 3H20.7451Z" fill="#797D85"/>
<path d="M22 19L19.5872 16.5872M19.5872 16.5872C20 16.1745 20.3273 15.6846 20.5507 15.1453C20.7741 14.6061 20.889 14.0282 20.889 13.4445C20.889 12.8608 20.7741 12.2829 20.5507 11.7437C20.3273 11.2044 20 10.7145 19.5872 10.3018C19.1745 9.88906 18.6846 9.56168 18.1453 9.33832C17.6061 9.11496 17.0282 9 16.4445 9C15.8608 9 15.2829 9.11496 14.7437 9.33832C14.2044 9.56168 13.7145 9.88906 13.3018 10.3018C12.4683 11.1353 12 12.2658 12 13.4445C12 14.6233 12.4683 15.7537 13.3018 16.5872C14.1353 17.4208 15.2658 17.889 16.4445 17.889C17.6233 17.889 18.7537 17.4208 19.5872 16.5872Z" stroke="#797D85" stroke-width="1.5" stroke-linecap="round" stroke-linejoin="round"/>
</svg>
