<svg width="24" height="24" viewBox="0 0 24 24" fill="none" xmlns="http://www.w3.org/2000/svg">
<g clip-path="url(#clip0_423_2970)">
<path d="M8.20004 19.49C8.10046 19.6017 8.03762 19.7414 8.02004 19.89C8.00418 20.037 8.02836 20.1856 8.09004 20.32C8.39402 20.9388 8.86271 21.4618 9.44461 21.8316C10.0265 22.2014 10.6991 22.4036 11.3884 22.416C12.0777 22.4284 12.7572 22.2505 13.352 21.9019C13.9468 21.5533 14.434 21.0475 14.76 20.44C14.8091 20.3544 14.8398 20.2595 14.8501 20.1613C14.8604 20.0632 14.8502 19.964 14.82 19.87C14.7936 19.7739 14.7457 19.685 14.68 19.61C14.6191 19.5336 14.5445 19.4692 14.46 19.42C14.3729 19.3751 14.2778 19.3479 14.18 19.34C14.0806 19.3249 13.9795 19.3249 13.88 19.34C13.7865 19.3727 13.6988 19.4199 13.62 19.48C13.5464 19.545 13.4854 19.6229 13.44 19.71C13.2917 19.9891 13.0872 20.2345 12.8393 20.4307C12.5915 20.6269 12.3057 20.7697 12 20.85C11.5723 20.9521 11.1242 20.9278 10.71 20.78C10.3068 20.6248 9.95871 20.3534 9.71004 20C9.62852 19.8942 9.55815 19.7803 9.50004 19.66C9.43576 19.5247 9.33089 19.4129 9.20004 19.34M7.40004 19.61C8.61004 19.69 10.09 19.75 11.81 19.75C14.43 19.75 16.51 19.61 17.91 19.48H18.16L18.72 19.43C19.0045 19.3956 19.2834 19.325 19.55 19.22C19.8635 19.0904 20.129 18.8668 20.31 18.58C20.4768 18.2732 20.5628 17.9291 20.56 17.58C20.5983 16.8458 20.5207 16.1101 20.33 15.4C20.1842 14.9886 19.9324 14.6229 19.6 14.34C18.8168 13.6034 18.3356 12.6018 18.25 11.53L18 9.53C17.8919 8.24577 17.3843 7.02764 16.5485 6.0466C15.7128 5.06556 14.5908 4.37086 13.34 4.06V3.5C13.34 3.10218 13.182 2.72064 12.9007 2.43934C12.6194 2.15804 12.2379 2 11.84 2C11.4422 2 11.0607 2.15804 10.7794 2.43934C10.4981 2.72064 10.34 3.10218 10.34 3.5V3.93C9.07267 4.22446 7.93082 4.91204 7.07771 5.89446C6.2246 6.87689 5.7039 8.10386 5.59004 9.4L5.34004 11.4C5.26365 12.4866 4.78605 13.5059 4.00004 14.26C3.66767 14.5429 3.41585 14.9086 3.27004 15.32C3.06483 16.0311 2.97369 16.7703 3.00004 17.51C2.99729 17.8591 3.08331 18.2032 3.25004 18.51C3.42042 18.8138 3.68311 19.0555 4.00004 19.2C4.26631 19.3061 4.54537 19.3767 4.83004 19.41L5.39004 19.46H5.64004L6.38004 19.53M7.07004 9.53C7.17788 8.36602 7.71651 7.28427 8.58038 6.49674C9.44425 5.70921 10.5711 5.27267 11.74 5.27267C12.909 5.27267 14.0358 5.70921 14.8997 6.49674C15.7636 7.28427 16.3022 8.36602 16.41 9.53L16.66 11.53C16.7869 12.9657 17.4384 14.3044 18.49 15.29C18.6456 15.4094 18.7665 15.5682 18.84 15.75C18.9701 16.3067 19.0206 16.8791 18.99 17.45C19.0092 17.5424 19.0092 17.6376 18.99 17.73L18.57 17.82L18 18H17.7C16.34 18.13 14.31 18.26 11.7 18.26C9.09004 18.26 7.10004 18.13 5.70004 18H5.40004H4.93004C4.78702 17.981 4.64629 17.9475 4.51004 17.9H4.46004C4.44091 17.8076 4.44091 17.7124 4.46004 17.62C4.42947 17.0491 4.47997 16.4767 4.61004 15.92C4.67548 15.6931 4.81222 15.4932 5.00004 15.35C6.05169 14.3644 6.70321 13.0257 6.83004 11.59L7.07004 9.53Z" fill="black"/>
</g>
<path d="M24 2C24 3.10457 23.1046 4 22 4C20.8954 4 20 3.10457 20 2C20 0.895431 20.8954 0 22 0C23.1046 0 24 0.895431 24 2Z" fill="#FF3B30"/>
<defs>
<clipPath id="clip0_423_2970">
<rect width="17.5" height="20.41" fill="white" transform="translate(3 2)"/>
</clipPath>
</defs>
</svg>
