<svg width="32" height="24" viewBox="0 0 32 24" fill="none" xmlns="http://www.w3.org/2000/svg">
<path d="M17.1299 19L16.5999 18.23C16.8889 17.8519 17.0211 17.3769 16.9689 16.9039C16.9168 16.4308 16.6844 15.9961 16.3199 15.69C15.7068 15.1786 15.2869 14.4729 15.1299 13.69C13.5699 15.92 14.3799 17.15 15.1299 18.24L14.5799 19C13.5355 18.8032 12.5977 18.2351 11.9396 17.4005C11.2815 16.566 10.9477 15.5215 10.9999 14.46C10.9999 14.46 10.7899 12.3 13.2799 10.19C13.2799 10.19 16.0999 7.58 15.1199 5.65L15.8299 5C16.9131 5.75952 17.7418 6.82836 18.2075 8.06664C18.6732 9.30491 18.7542 10.6549 18.4399 11.94C18.6765 11.7081 18.8666 11.4332 18.9999 11.13L19.8699 11.06C19.9399 11.18 21.7099 13.99 20.7599 16.36C20.4216 17.0668 19.9126 17.6782 19.2788 18.1391C18.6451 18.6 17.9066 18.8959 17.1299 19ZM15.1299 12.05L15.9999 12.44C15.9536 12.8962 16.0124 13.357 16.1719 13.7869C16.3313 14.2168 16.5873 14.6044 16.9199 14.92C17.3486 15.2323 17.6732 15.6664 17.8516 16.1658C18.03 16.6653 18.0538 17.2068 17.9199 17.72C18.3333 17.5752 18.713 17.3482 19.0361 17.0526C19.3593 16.7569 19.6191 16.3989 19.7999 16C20.1395 14.7826 19.9924 13.481 19.3899 12.37C19.2006 12.6772 18.9254 12.9223 18.5985 13.0751C18.2716 13.2279 17.9071 13.2817 17.5499 13.23L17.1999 12.55C17.638 11.6028 17.7872 10.5474 17.6289 9.5159C17.4706 8.48435 17.0118 7.52232 16.3099 6.75C16.1699 8.87 13.9999 10.83 13.9299 10.94C11.8599 12.7 11.9999 14.33 11.9999 14.4C11.9609 15.0176 12.0877 15.6344 12.3673 16.1865C12.6469 16.7387 13.069 17.2059 13.5899 17.54C12.9999 16.14 12.9999 14.46 15.1599 12.05H15.1299Z" fill="#797D85"/>
</svg>
