<svg width="20" height="21" viewBox="0 0 20 21" fill="none" xmlns="http://www.w3.org/2000/svg">
<path fill-rule="evenodd" clip-rule="evenodd" d="M4.60537 5.51381C6.19355 6.05878 7.85686 4.96493 8.15234 3.45578C8.334 2.67144 8.54722 2.32843 8.75876 2.15288C8.96297 1.98343 9.3113 1.85002 10.0681 1.85002C10.6537 1.85002 10.9861 1.99732 11.2032 2.20133C11.4367 2.42076 11.6532 2.81474 11.7831 3.52745L11.7831 3.52745L11.7839 3.53191C11.9393 4.35918 12.5089 4.98302 13.1709 5.32813C13.8348 5.67422 14.6677 5.78322 15.4529 5.50679C15.4638 5.50295 15.4746 5.49888 15.4854 5.4946C16.2385 5.19434 16.6479 5.20027 16.8979 5.28471C17.1438 5.36776 17.4259 5.59084 17.7749 6.18207C18.1315 6.78639 18.1785 7.10883 18.1376 7.32689C18.0947 7.55517 17.9137 7.89273 17.2772 8.42091L17.2655 8.43075C15.9883 9.52988 15.9883 11.4702 17.2655 12.5693L17.2772 12.5791C17.9137 13.1073 18.0947 13.4449 18.1376 13.6732C18.1785 13.8912 18.1315 14.2137 17.7749 14.818C17.4279 15.4059 17.1416 15.6393 16.8818 15.7328C16.6166 15.8284 16.1994 15.8429 15.4486 15.5868C13.9258 15.0535 12.076 15.9608 11.7817 17.6708C11.6509 18.4306 11.4405 18.7312 11.2525 18.8768C11.0499 19.0337 10.6968 19.15 9.96995 19.15C9.27034 19.15 8.91032 19.0198 8.69877 18.8501C8.49377 18.6857 8.28614 18.3695 8.15744 17.6662C7.86052 15.9591 6.01275 15.054 4.49126 15.5868C3.74049 15.8429 3.3233 15.8284 3.05808 15.7328C2.79834 15.6393 2.51204 15.4059 2.16504 14.818C2.16029 14.8099 2.15541 14.8019 2.15039 14.7941C1.84533 14.3141 1.81342 13.9816 1.878 13.7201C1.95058 13.4263 2.18745 13.0489 2.7567 12.5826L2.77249 12.5693C4.07171 11.4512 3.92902 9.51338 2.67803 8.52707C2.11043 7.97077 1.93322 7.6171 1.89204 7.36081C1.85285 7.11688 1.90914 6.78515 2.25594 6.19435C2.574 5.69784 2.86758 5.48719 3.15516 5.39861C3.46392 5.30349 3.90804 5.30483 4.60537 5.51381ZM10.0681 0.150024C9.15671 0.150024 8.32754 0.301619 7.67315 0.844665C7.02738 1.38055 6.70223 2.17442 6.49211 3.08987C6.48957 3.10091 6.48726 3.112 6.48517 3.12314C6.37911 3.68784 5.70759 4.09967 5.14969 3.90326C5.13774 3.89905 5.1257 3.89511 5.11357 3.89144C4.25006 3.63019 3.42296 3.53728 2.65468 3.77394C1.86511 4.01717 1.2779 4.56393 0.813813 5.29405C0.808797 5.30195 0.803911 5.30992 0.799158 5.31797C0.3674 6.04948 0.08131 6.80735 0.213566 7.63049C0.343316 8.43803 0.84692 9.12067 1.52868 9.78071C1.55389 9.80512 1.58058 9.82794 1.60861 9.84904C2.07858 10.2029 2.11427 10.8861 1.66994 11.2752C0.968121 11.8521 0.423989 12.5174 0.227602 13.3125C0.0234294 14.1391 0.233487 14.9423 0.708055 15.6939C1.1449 16.4308 1.69105 17.0473 2.48191 17.3322C3.27117 17.6165 4.12879 17.5071 5.04414 17.1944L5.04416 17.1944L5.05157 17.1918C5.68665 16.9682 6.38504 17.3908 6.48288 17.9592L6.48284 17.9592L6.48434 17.9674C6.65007 18.8767 6.98177 19.6522 7.63502 20.1762C8.28206 20.6952 9.09955 20.85 9.96995 20.85C10.8131 20.85 11.6375 20.7289 12.2935 20.2208C12.9641 19.7014 13.2934 18.9095 13.457 17.9592C13.5549 17.3908 14.2532 16.9682 14.8883 17.1918L14.8883 17.1918L14.8958 17.1944C15.8111 17.5071 16.6687 17.6165 17.458 17.3322C18.2531 17.0458 18.8008 16.4242 19.2389 15.6821C19.6672 14.9564 19.9636 14.1863 19.8083 13.3594C19.6554 12.5452 19.1035 11.8868 18.3696 11.2766C17.887 10.8565 17.887 10.1435 18.3696 9.72348C19.1035 9.11325 19.6554 8.45486 19.8083 7.64066C19.9636 6.81371 19.6672 6.04366 19.2389 5.31797C18.8028 4.57921 18.2508 3.94729 17.4419 3.67409C16.6426 3.40417 15.7828 3.54867 14.8749 3.90788C14.5837 4.00578 14.2451 3.97101 13.9567 3.82067C13.6628 3.66742 13.4965 3.43705 13.455 3.21981C13.2904 2.31868 12.9673 1.52621 12.3673 0.962465C11.7504 0.382728 10.9543 0.150024 10.0681 0.150024ZM7.85002 10.5C7.85002 9.31261 8.8126 8.35002 10 8.35002C11.1874 8.35002 12.15 9.31261 12.15 10.5C12.15 11.6874 11.1874 12.65 10 12.65C8.8126 12.65 7.85002 11.6874 7.85002 10.5ZM10 6.65002C7.87372 6.65002 6.15002 8.37373 6.15002 10.5C6.15002 12.6263 7.87372 14.35 10 14.35C12.1263 14.35 13.85 12.6263 13.85 10.5C13.85 8.37373 12.1263 6.65002 10 6.65002Z" fill="#797D85"/>
</svg>
