<svg width="12" height="12" viewBox="0 0 12 12" fill="none" xmlns="http://www.w3.org/2000/svg">
<path d="M3.21375 0.796753C3.06297 0.947529 2.97061 1.15705 2.97091 1.38716L2.97091 1.48844C2.97091 1.94924 3.34394 2.32227 3.80415 2.32168L8.35707 2.32168L0.655317 10.0234C0.330048 10.3487 0.330048 10.8767 0.655317 11.2019C0.980586 11.5272 1.50856 11.5272 1.83383 11.2019L9.53558 3.50019V8.05311C9.53558 8.51391 9.90862 8.88695 10.3688 8.88636H10.4701C10.9309 8.88636 11.3039 8.51332 11.3034 8.05311V1.38716C11.3034 0.926361 10.9303 0.553326 10.4701 0.553915L3.80415 0.553915C3.57375 0.553915 3.36452 0.645977 3.21375 0.796753Z" fill="#34C759"/>
</svg>
