<svg width="32" height="24" viewBox="0 0 32 24" fill="none" xmlns="http://www.w3.org/2000/svg">
<path d="M22.6668 10.7334C22.7335 10.4 22.4668 10 22.1335 10L18.3335 9.46671L16.6002 6.00004C16.5335 5.86671 16.4668 5.80004 16.3335 5.73337C16.0002 5.53337 15.6002 5.66671 15.4002 6.00004L13.7335 9.46671L9.9335 10C9.7335 10 9.60016 10.0667 9.5335 10.2C9.26683 10.4667 9.26683 10.8667 9.5335 11.1334L12.2668 13.8L11.6002 17.6C11.6002 17.7334 11.6002 17.8667 11.6668 18C11.8668 18.3334 12.2668 18.4667 12.6002 18.2667L16.0002 16.4667L19.4002 18.2667C19.4668 18.3334 19.6002 18.3334 19.7335 18.3334H19.8668C20.2002 18.2667 20.4668 17.9334 20.4002 17.5334L19.7335 13.7334L22.4668 11.0667C22.6002 11 22.6668 10.8667 22.6668 10.7334Z" fill="#797D85"/>
</svg>
