<svg width="24" height="24" viewBox="0 0 24 24" fill="none" xmlns="http://www.w3.org/2000/svg">
<path fill-rule="evenodd" clip-rule="evenodd" d="M11.55 3.8499C16.0806 3.8499 19.7 7.46934 19.7 11.9999C19.7 12.9992 19.518 13.9913 19.1608 14.8842C19.0778 15.0918 19.0799 15.3237 19.1666 15.5298L20.2698 18.1499H17.15C16.957 18.1499 16.7697 18.2156 16.619 18.3362C15.2548 19.4276 13.4387 20.1499 11.55 20.1499C7.01945 20.1499 3.40001 16.5305 3.40001 11.9999C3.40001 7.46934 7.01945 3.8499 11.55 3.8499ZM21.4 11.9999C21.4 6.53046 17.0195 2.1499 11.55 2.1499C6.08057 2.1499 1.70001 6.53046 1.70001 11.9999C1.70001 17.4693 6.08057 21.8499 11.55 21.8499C13.7499 21.8499 15.8343 21.0548 17.4406 19.8499H21.2488C21.9997 19.8499 22.5079 19.0845 22.2165 18.3924L20.8648 15.1821C21.2233 14.1681 21.4 13.0811 21.4 11.9999ZM7.55003 11.3499C6.9149 11.3499 6.40003 11.8648 6.40003 12.4999C6.40003 13.135 6.9149 13.6499 7.55003 13.6499C8.18516 13.6499 8.70003 13.135 8.70003 12.4999C8.70003 11.8648 8.18516 11.3499 7.55003 11.3499ZM11.55 11.3499C10.9149 11.3499 10.4 11.8648 10.4 12.4999C10.4 13.135 10.9149 13.6499 11.55 13.6499C12.1852 13.6499 12.7 13.135 12.7 12.4999C12.7 11.8648 12.1852 11.3499 11.55 11.3499ZM15.55 11.3499C14.9149 11.3499 14.4 11.8648 14.4 12.4999C14.4 13.135 14.9149 13.6499 15.55 13.6499C16.1852 13.6499 16.7 13.135 16.7 12.4999C16.7 11.8648 16.1852 11.3499 15.55 11.3499Z" fill="#797D85"/>
</svg>
