<svg width="24" height="24" viewBox="0 0 24 24" fill="none" xmlns="http://www.w3.org/2000/svg">
<path d="M4.50009 23.25H9.00009C9.199 23.25 9.38977 23.1709 9.53042 23.0303C9.67107 22.8896 9.75009 22.6989 9.75009 22.5V16.5C9.75009 16.301 9.82911 16.1103 9.96976 15.9696C10.1104 15.829 10.3012 15.75 10.5001 15.75H13.5001C13.699 15.75 13.8898 15.829 14.0304 15.9696C14.1711 16.1103 14.2501 16.301 14.2501 16.5V22.5C14.2501 22.6989 14.3291 22.8896 14.4698 23.0303C14.6104 23.1709 14.8012 23.25 15.0001 23.25H19.5001C19.699 23.25 19.8898 23.1709 20.0304 23.0303C20.1711 22.8896 20.2501 22.6989 20.2501 22.5V12.75H22.4296C22.58 12.7628 22.7308 12.7297 22.8619 12.6549C22.9931 12.5802 23.0985 12.4675 23.1642 12.3315C23.2299 12.1956 23.2527 12.043 23.2298 11.8938C23.2068 11.7446 23.1391 11.6058 23.0356 11.496L12.5311 0.980961C12.4614 0.911116 12.3787 0.855702 12.2875 0.817892C12.1964 0.780082 12.0987 0.76062 12.0001 0.76062C11.9014 0.76062 11.8038 0.780082 11.7126 0.817892C11.6215 0.855702 11.5388 0.911116 11.4691 0.980961L0.96459 11.496C0.861076 11.6058 0.793359 11.7446 0.770395 11.8938C0.747432 12.043 0.770305 12.1956 0.835988 12.3315C0.901672 12.4675 1.00707 12.5802 1.13824 12.6549C1.26941 12.7297 1.42018 12.7628 1.57059 12.75H3.75009V22.5C3.75009 22.6989 3.82911 22.8896 3.96976 23.0303C4.11041 23.1709 4.30118 23.25 4.50009 23.25Z" stroke="#797D85" stroke-width="1.5"/>
</svg>
