<svg width="22" height="22" viewBox="0 0 22 22" fill="none" xmlns="http://www.w3.org/2000/svg">
<g clip-path="url(#clip0_176_1344)">
<path d="M9.75 20.75C8.64205 20.6235 7.56903 20.2839 6.59 19.75C2.7 18.12 0.75 17.29 0.75 15.91V5.75M9.75 20.75V10.1M9.75 20.75C10.0902 20.7464 10.4277 20.689 10.75 20.58M18.75 5.75V11.75M3.75 10.75L5.75 11.75M14.75 2.75L4.75 7.75M6.08 8.44L3.16 7C1.55 6.25 0.75 5.86 0.75 5.25C0.75 4.64 1.55 4.25 3.16 3.47L6.07 2.06C7.88 1.19 8.78 0.75 9.75 0.75C10.72 0.75 11.62 1.19 13.42 2.06L16.34 3.47C17.95 4.25 18.75 4.64 18.75 5.25C18.75 5.86 18 6.25 16.34 7L13.43 8.44C11.62 9.31 10.72 9.75 9.75 9.75C8.78 9.75 7.88 9.31 6.08 8.44Z" stroke="#797D85" stroke-width="1.5" stroke-linecap="round" stroke-linejoin="round"/>
<path d="M19.17 21.17L16.77 19.8C16.6703 19.7458 16.5585 19.7173 16.445 19.7173C16.3315 19.7173 16.2197 19.7458 16.12 19.8L13.62 21C13.5945 21.0121 13.5661 21.0167 13.5381 21.0133C13.5101 21.0099 13.4836 20.9987 13.4616 20.981C13.4397 20.9632 13.4232 20.9396 13.4141 20.9129C13.405 20.8862 13.4035 20.8575 13.41 20.83L13.97 18.13C13.9937 18.0183 13.9896 17.9025 13.9583 17.7927C13.9269 17.6829 13.8691 17.5824 13.79 17.5L11.88 15.5C11.8569 15.4819 11.8401 15.4569 11.832 15.4286C11.8239 15.4003 11.8249 15.3702 11.8348 15.3426C11.8448 15.3149 11.8632 15.2911 11.8875 15.2745C11.9117 15.2579 11.9406 15.2493 11.97 15.25L14.72 14.94C14.8326 14.9289 14.9408 14.8903 15.035 14.8275C15.1291 14.7647 15.2064 14.6797 15.26 14.58L16.56 12.14C16.5723 12.1147 16.5915 12.0933 16.6153 12.0783C16.6392 12.0634 16.6668 12.0554 16.695 12.0554C16.7232 12.0554 16.7508 12.0634 16.7747 12.0783C16.7985 12.0933 16.8177 12.1147 16.83 12.14L18 14.65C18.0481 14.7536 18.1205 14.8441 18.211 14.9137C18.3015 14.9833 18.4075 15.0301 18.52 15.05L21.24 15.54C21.2675 15.5454 21.2929 15.5584 21.3134 15.5776C21.3339 15.5967 21.3487 15.6212 21.356 15.6482C21.3632 15.6753 21.3628 15.7039 21.3547 15.7307C21.3466 15.7575 21.3311 15.7816 21.31 15.8L19.31 17.66C19.2275 17.7369 19.1645 17.8324 19.1263 17.9385C19.088 18.0445 19.0756 18.1582 19.09 18.27L19.39 21C19.398 21.0288 19.3973 21.0593 19.3879 21.0876C19.3785 21.116 19.3609 21.1409 19.3373 21.1591C19.3136 21.1774 19.2851 21.1882 19.2553 21.1901C19.2255 21.1921 19.1958 21.1851 19.17 21.17Z" fill="#797D85" stroke="#797D85" stroke-linecap="round" stroke-linejoin="round"/>
</g>
<defs>
<clipPath id="clip0_176_1344">
<rect width="21.83" height="21.69" fill="white"/>
</clipPath>
</defs>
</svg>
