<svg width="24" height="24" viewBox="0 0 24 24" fill="none" xmlns="http://www.w3.org/2000/svg">
<path d="M1 3.72972C1 3.53619 1.06858 3.35058 1.19066 3.21373C1.31273 3.07688 1.4783 3 1.65094 3H20.7453C20.9179 3 21.0835 3.07688 21.2056 3.21373C21.3276 3.35058 21.3962 3.53619 21.3962 3.72972C21.3962 3.92325 21.3276 4.10886 21.2056 4.24571C21.0835 4.38256 20.9179 4.45944 20.7453 4.45944H1.65094C1.4783 4.45944 1.31273 4.38256 1.19066 4.24571C1.06858 4.10886 1 3.92325 1 3.72972ZM1.65094 12.2431H8.59434C8.76698 12.2431 8.93255 12.1663 9.05463 12.0294C9.1767 11.8926 9.24528 11.7069 9.24528 11.5134C9.24528 11.3199 9.1767 11.1343 9.05463 10.9974C8.93255 10.8606 8.76698 10.7837 8.59434 10.7837H1.65094C1.4783 10.7837 1.31273 10.8606 1.19066 10.9974C1.06858 11.1343 1 11.3199 1 11.5134C1 11.7069 1.06858 11.8926 1.19066 12.0294C1.31273 12.1663 1.4783 12.2431 1.65094 12.2431ZM10.3302 18.5674H1.65094C1.4783 18.5674 1.31273 18.6443 1.19066 18.7811C1.06858 18.918 1 19.1036 1 19.2971C1 19.4906 1.06858 19.6762 1.19066 19.8131C1.31273 19.9499 1.4783 20.0268 1.65094 20.0268H10.3302C10.5028 20.0268 10.6684 19.9499 10.7905 19.8131C10.9126 19.6762 10.9811 19.4906 10.9811 19.2971C10.9811 19.1036 10.9126 18.918 10.7905 18.7811C10.6684 18.6443 10.5028 18.5674 10.3302 18.5674ZM24 13.4593C24 17.7525 18.6601 20.7955 18.4323 20.9232C18.342 20.9737 18.2424 21 18.1415 21C18.0406 21 17.941 20.9737 17.8508 20.9232C17.6229 20.7955 12.283 17.7525 12.283 13.4593C12.283 12.6936 12.498 11.9472 12.8974 11.326C13.2968 10.7047 13.8605 10.2401 14.5085 9.99796C15.1566 9.7558 15.8562 9.74836 16.5082 9.97669C17.1602 10.205 17.7316 10.6575 18.1415 11.2702C18.5514 10.6575 19.1228 10.205 19.7748 9.97669C20.4269 9.74836 21.1265 9.7558 21.7745 9.99796C22.4226 10.2401 22.9862 10.7047 23.3856 11.326C23.7851 11.9472 24 12.6936 24 13.4593ZM22.6981 13.4593C22.6981 12.8787 22.4924 12.3219 22.1261 11.9114C21.7599 11.5008 21.2632 11.2702 20.7453 11.2702C20.2274 11.2702 19.7306 11.5008 19.3644 11.9114C18.9982 12.3219 18.7925 12.8787 18.7925 13.4593C18.7925 13.6529 18.7239 13.8385 18.6018 13.9753C18.4797 14.1122 18.3142 14.1891 18.1415 14.1891C17.9689 14.1891 17.8033 14.1122 17.6812 13.9753C17.5591 13.8385 17.4906 13.6529 17.4906 13.4593C17.4906 12.8787 17.2848 12.3219 16.9186 11.9114C16.5524 11.5008 16.0557 11.2702 15.5377 11.2702C15.0198 11.2702 14.5231 11.5008 14.1569 11.9114C13.7906 12.3219 13.5849 12.8787 13.5849 13.4593C13.5849 15.1803 14.8629 16.7431 15.9359 17.7464C16.6249 18.3837 17.363 18.951 18.1415 19.4418C18.9204 18.9516 19.6585 18.3842 20.3471 17.7464C21.4201 16.7431 22.6981 15.1803 22.6981 13.4593Z" fill="#797D85"/>
</svg>
