<svg width="32" height="24" viewBox="0 0 32 24" fill="none" xmlns="http://www.w3.org/2000/svg">
<path d="M11.0908 15.8184H11.8179V17.6364H11.0908V15.8184Z" fill="#797D85"/>
<path d="M11.8186 12.2325V6H11.0919V12.2325C10.7491 12.321 10.4503 12.5315 10.2516 12.8246C10.053 13.1176 9.96796 13.473 10.0126 13.8242C10.0572 14.1755 10.2284 14.4983 10.494 14.7324C10.7597 14.9664 11.1016 15.0955 11.4556 15.0955C11.8096 15.0955 12.1515 14.9664 12.4172 14.7324C12.6828 14.4983 12.854 14.1755 12.8986 13.8242C12.9433 13.473 12.8583 13.1176 12.6596 12.8246C12.4609 12.5315 12.1621 12.321 11.8194 12.2325M11.4556 14.3636C11.3587 14.3658 11.2623 14.3486 11.1722 14.3131C11.082 14.2775 10.9999 14.2243 10.9305 14.1565C10.8612 14.0888 10.8062 14.0079 10.7686 13.9185C10.731 13.8292 10.7116 13.7332 10.7116 13.6363C10.7116 13.5394 10.731 13.4434 10.7686 13.3541C10.8062 13.2648 10.8612 13.1838 10.9305 13.1161C10.9999 13.0483 11.082 12.9951 11.1722 12.9595C11.2623 12.924 11.3587 12.9068 11.4556 12.909C11.6456 12.9133 11.8264 12.9918 11.9593 13.1278C12.0922 13.2637 12.1666 13.4462 12.1666 13.6363C12.1666 13.8264 12.0922 14.0089 11.9593 14.1449C11.8264 14.2808 11.6456 14.3593 11.4556 14.3636Z" fill="#797D85"/>
<path d="M15.4541 12.1819H16.1812V17.6363H15.4541V12.1819Z" fill="#797D85"/>
<path d="M16.1817 8.5965V6H15.4542V8.5965C15.1114 8.68503 14.8126 8.89554 14.6139 9.18857C14.4153 9.4816 14.3303 9.83703 14.3749 10.1882C14.4195 10.5395 14.5907 10.8623 14.8563 11.0964C15.122 11.3304 15.4639 11.4595 15.8179 11.4595C16.1719 11.4595 16.5138 11.3304 16.7795 11.0964C17.0451 10.8623 17.2163 10.5395 17.2609 10.1882C17.3056 9.83703 17.2206 9.4816 17.0219 9.18857C16.8232 8.89554 16.5244 8.68503 16.1817 8.5965ZM15.8179 10.7273C15.721 10.7295 15.6246 10.7123 15.5345 10.6767C15.4443 10.6411 15.3622 10.5879 15.2928 10.5202C15.2235 10.4524 15.1685 10.3715 15.1309 10.2822C15.0933 10.1928 15.0739 10.0969 15.0739 9.99994C15.0739 9.90301 15.0933 9.80706 15.1309 9.71772C15.1685 9.62839 15.2235 9.54747 15.2928 9.47971C15.3622 9.41196 15.4443 9.35873 15.5345 9.32317C15.6246 9.28761 15.721 9.27042 15.8179 9.27262C16.0109 9.27262 16.1959 9.34927 16.3323 9.4857C16.4688 9.62214 16.5454 9.80718 16.5454 10.0001C16.5454 10.1931 16.4688 10.3781 16.3323 10.5145C16.1959 10.651 16.0109 10.7276 15.8179 10.7276" fill="#797D85"/>
<path d="M19.8184 15.8184H20.5455V17.6364H19.8184V15.8184Z" fill="#797D85"/>
<path d="M20.5449 12.2325V6H19.8174V12.2325C19.4747 12.321 19.1759 12.5315 18.9772 12.8246C18.7785 13.1176 18.6935 13.473 18.7382 13.8242C18.7828 14.1755 18.954 14.4983 19.2196 14.7324C19.4853 14.9664 19.8272 15.0955 20.1812 15.0955C20.5352 15.0955 20.8771 14.9664 21.1428 14.7324C21.4084 14.4983 21.5796 14.1755 21.6242 13.8242C21.6688 13.473 21.5838 13.1176 21.3852 12.8246C21.1865 12.5315 20.8877 12.321 20.5449 12.2325ZM20.1812 14.3636C20.0843 14.3658 19.9879 14.3486 19.8978 14.3131C19.8076 14.2775 19.7254 14.2243 19.6561 14.1565C19.5868 14.0888 19.5317 14.0079 19.4941 13.9185C19.4565 13.8292 19.4372 13.7332 19.4372 13.6363C19.4372 13.5394 19.4565 13.4434 19.4941 13.3541C19.5317 13.2648 19.5868 13.1838 19.6561 13.1161C19.7254 13.0483 19.8076 12.9951 19.8978 12.9595C19.9879 12.924 20.0843 12.9068 20.1812 12.909C20.3712 12.9133 20.552 12.9918 20.6849 13.1278C20.8178 13.2637 20.8922 13.4462 20.8922 13.6363C20.8922 13.8264 20.8178 14.0089 20.6849 14.1449C20.552 14.2808 20.3712 14.3593 20.1812 14.3636Z" fill="#797D85"/>
</svg>
