<svg width="12" height="12" viewBox="0 0 12 12" fill="none" xmlns="http://www.w3.org/2000/svg">
<path d="M8.50012 11.2019C8.6509 11.0511 8.74325 10.8416 8.74296 10.6115L8.74296 10.5102C8.74296 10.0494 8.36992 9.67639 7.90972 9.67698L3.3568 9.67698L11.0586 1.97522C11.3838 1.64995 11.3838 1.12198 11.0585 0.796709C10.7333 0.47144 10.2053 0.47144 9.88004 0.796709L2.17828 8.49846V3.94554C2.17828 3.48475 1.80525 3.11171 1.34504 3.1123H1.24376C0.782963 3.1123 0.409927 3.48534 0.410517 3.94554V10.6115C0.410517 11.0723 0.783552 11.4453 1.24376 11.4447L7.90972 11.4447C8.14011 11.4447 8.34935 11.3527 8.50012 11.2019Z" fill="#FF3B30"/>
</svg>
