<svg width="24" height="24" viewBox="0 0 24 24" fill="none" xmlns="http://www.w3.org/2000/svg">
<path fill-rule="evenodd" clip-rule="evenodd" d="M3.85002 9.9999C3.85002 6.60335 6.60347 3.8499 10 3.8499C13.3966 3.8499 16.15 6.60335 16.15 9.9999C16.15 13.3965 13.3966 16.1499 10 16.1499C6.60347 16.1499 3.85002 13.3965 3.85002 9.9999ZM10 2.1499C5.66459 2.1499 2.15002 5.66447 2.15002 9.9999C2.15002 14.3353 5.66459 17.8499 10 17.8499C11.8615 17.8499 13.5717 17.202 14.9173 16.1193L20.399 21.6009C20.7309 21.9329 21.2691 21.9329 21.6011 21.6009C21.933 21.269 21.933 20.7308 21.6011 20.3989L16.1194 14.9172C17.2021 13.5716 17.85 11.8614 17.85 9.9999C17.85 5.66447 14.3355 2.1499 10 2.1499Z" fill="black"/>
</svg>
