<svg width="23" height="23" viewBox="0 0 23 23" fill="none" xmlns="http://www.w3.org/2000/svg">
<path fill-rule="evenodd" clip-rule="evenodd" d="M18.9395 4.51356e-05C19.5245 4.51356e-05 20 0.475545 20 1.06055V3.00005H21.9395C22.1493 3 22.3543 3.06217 22.5288 3.1787C22.7032 3.29523 22.8392 3.46087 22.9195 3.65468C22.9998 3.84849 23.0208 4.06175 22.9798 4.2675C22.9389 4.47325 22.8378 4.66223 22.6895 4.81054L20.4995 7.00054C20.1797 7.3196 19.7467 7.49917 19.295 7.50004H17.09L11.795 12.795C11.5817 12.9938 11.2997 13.102 11.0082 13.0968C10.7168 13.0917 10.4387 12.9736 10.2326 12.7675C10.0264 12.5614 9.90837 12.2833 9.90322 11.9918C9.89808 11.7004 10.0063 11.4183 10.205 11.205L15.5 5.91005V3.70505C15.5 3.25355 15.68 2.82004 15.9995 2.49905L18.1895 0.309045C18.2876 0.210107 18.4045 0.131697 18.5333 0.0783884C18.662 0.0250794 18.8001 -0.00206244 18.9395 -0.00145486M2.74999 12C2.74983 10.7769 3.02167 9.56893 3.54582 8.46373C4.06998 7.35853 4.83334 6.38371 5.78063 5.60986C6.72792 4.836 7.83543 4.28248 9.02299 3.98936C10.2105 3.69623 11.4484 3.67085 12.647 3.91504C12.9379 3.97055 13.2389 3.90912 13.4848 3.74409C13.7307 3.57905 13.9016 3.32373 13.9604 3.0335C14.0192 2.74327 13.9613 2.44154 13.7991 2.19378C13.6369 1.94602 13.3835 1.77221 13.094 1.71005C10.8825 1.26042 8.58497 1.53528 6.54194 2.49388C4.49891 3.45247 2.81909 5.0438 1.75143 7.03201C0.683765 9.02022 0.285085 11.2995 0.614472 13.5321C0.943859 15.7647 1.98378 17.8317 3.58012 19.4269C5.17647 21.0221 7.24427 22.0605 9.47709 22.3882C11.7099 22.716 13.9889 22.3156 15.9763 21.2465C17.9638 20.1774 19.5539 18.4964 20.511 16.4527C21.4681 14.4089 21.7412 12.1112 21.29 9.90005C21.2305 9.60764 21.0573 9.35084 20.8085 9.18614C20.5597 9.02144 20.2556 8.96232 19.9632 9.0218C19.6708 9.08127 19.414 9.25446 19.2493 9.50328C19.0846 9.75209 19.0255 10.0561 19.085 10.3485C19.194 10.8815 19.249 11.432 19.25 12C19.25 14.1881 18.3808 16.2865 16.8336 17.8337C15.2864 19.3809 13.188 20.25 11 20.25C8.81195 20.25 6.71353 19.3809 5.16636 17.8337C3.61918 16.2865 2.74999 14.1881 2.74999 12ZM10.796 8.25605C11.094 8.24013 11.3734 8.1065 11.5728 7.88455C11.7723 7.6626 11.8754 7.37052 11.8595 7.07255C11.8436 6.77457 11.7099 6.49513 11.488 6.29568C11.266 6.09624 10.974 5.99313 10.676 6.00905C9.52387 6.07113 8.4141 6.46409 7.47962 7.14083C6.54515 7.81757 5.82562 8.74939 5.40723 9.82465C4.98885 10.8999 4.88937 12.073 5.1207 13.2033C5.35203 14.3337 5.90437 15.3734 6.71153 16.1978C7.51869 17.0223 8.54645 17.5965 9.67165 17.8517C10.7969 18.1069 11.9718 18.0323 13.0557 17.6368C14.1395 17.2413 15.0864 16.5417 15.7828 15.6217C16.4791 14.7018 16.8955 13.6006 16.982 12.45C17.0041 12.1525 16.907 11.8583 16.7122 11.6323C16.5174 11.4063 16.2408 11.2669 15.9432 11.2448C15.6457 11.2227 15.3515 11.3198 15.1255 11.5146C14.8995 11.7094 14.7601 11.986 14.738 12.2835C14.6833 13.0023 14.4226 13.69 13.9871 14.2644C13.5517 14.8388 12.9599 15.2755 12.2827 15.5223C11.6055 15.769 10.8715 15.8154 10.1686 15.6558C9.46567 15.4963 8.82365 15.1375 8.31937 14.6225C7.81509 14.1074 7.46992 13.458 7.32519 12.7519C7.18045 12.0458 7.24228 11.3129 7.50327 10.6411C7.76426 9.96917 8.21336 9.38675 8.79679 8.9635C9.38023 8.54025 10.0733 8.29411 10.793 8.25455" fill="#797D85"/>
</svg>
