<svg width="24" height="25" viewBox="0 0 24 25" fill="none" xmlns="http://www.w3.org/2000/svg">
<path fill-rule="evenodd" clip-rule="evenodd" d="M3.85002 12.5C3.85002 7.9989 7.4989 4.35002 12 4.35002C12.8909 4.35002 13.7468 4.49266 14.5471 4.7557C14.9931 4.90228 15.4734 4.65958 15.62 4.21361C15.7666 3.76764 15.5239 3.28728 15.0779 3.1407C14.1085 2.82206 13.0735 2.65002 12 2.65002C6.56002 2.65002 2.15002 7.06002 2.15002 12.5C2.15002 17.94 6.56002 22.35 12 22.35C17.44 22.35 21.85 17.94 21.85 12.5C21.85 12.0306 21.4695 11.65 21 11.65C20.5306 11.65 20.15 12.0306 20.15 12.5C20.15 17.0011 16.5011 20.65 12 20.65C7.4989 20.65 3.85002 17.0011 3.85002 12.5ZM19.6024 8.09976C19.9336 7.7671 19.9324 7.22891 19.5998 6.89768C19.2671 6.56646 18.7289 6.56762 18.3977 6.90029L12.0496 13.276L9.62095 10.6781C9.30036 10.3351 8.76248 10.317 8.41955 10.6376C8.07662 10.9582 8.05851 11.4961 8.3791 11.839L11.4094 15.0805C11.567 15.249 11.7863 15.3463 12.0169 15.3499C12.2476 15.3536 12.4699 15.2633 12.6327 15.0998L19.6024 8.09976Z" fill="#00ABB3"/>
</svg>
