<svg width="20" height="20" viewBox="0 0 20 20" fill="none" xmlns="http://www.w3.org/2000/svg">
<path fill-rule="evenodd" clip-rule="evenodd" d="M1.85002 10C1.85002 5.4989 5.4989 1.85002 10 1.85002C14.5011 1.85002 18.15 5.4989 18.15 10C18.15 14.5011 14.5011 18.15 10 18.15C5.4989 18.15 1.85002 14.5011 1.85002 10ZM10 0.150024C4.56002 0.150024 0.150024 4.56002 0.150024 10C0.150024 15.44 4.56002 19.85 10 19.85C15.44 19.85 19.85 15.44 19.85 10C19.85 4.56002 15.44 0.150024 10 0.150024ZM9.15002 10C9.15002 10.4695 9.53058 10.85 10 10.85C10.4695 10.85 10.85 10.4695 10.85 10V6.00004C10.85 5.53059 10.4695 5.15004 10 5.15004C9.53058 5.15004 9.15002 5.53059 9.15002 6.00004V10ZM10 12.35C9.36491 12.35 8.85004 12.8649 8.85004 13.5C8.85004 14.1352 9.36491 14.65 10 14.65C10.6352 14.65 11.15 14.1352 11.15 13.5C11.15 12.8649 10.6352 12.35 10 12.35Z" fill="#797D85"/>
</svg>
