<svg width="24" height="25" viewBox="0 0 24 25" fill="none" xmlns="http://www.w3.org/2000/svg">
<path fill-rule="evenodd" clip-rule="evenodd" d="M6.85002 8.50002C6.85002 6.76033 8.26033 5.35002 10 5.35002C11.7397 5.35002 13.15 6.76033 13.15 8.50002C13.15 10.2397 11.7397 11.65 10 11.65C8.26033 11.65 6.85002 10.2397 6.85002 8.50002ZM10 3.65002C7.32144 3.65002 5.15002 5.82144 5.15002 8.50002C5.15002 11.1786 7.32144 13.35 10 13.35C12.6786 13.35 14.85 11.1786 14.85 8.50002C14.85 5.82144 12.6786 3.65002 10 3.65002ZM4.85002 18.4167C4.85002 18.0137 5.17867 17.4979 6.21839 17.0388C7.20792 16.6018 8.58426 16.35 10 16.35C11.3957 16.35 12.7709 16.6431 13.7679 17.1047C14.2669 17.3357 14.6328 17.5912 14.863 17.8378C15.0846 18.0753 15.1477 18.2656 15.15 18.4085C15.1419 18.4301 15.1051 18.4982 14.9627 18.6088C14.7443 18.7786 14.3797 18.9616 13.865 19.1271C12.8446 19.455 11.4363 19.65 10 19.65C8.30152 19.65 6.90338 19.4521 5.96133 19.1316C5.48766 18.9704 5.18108 18.7955 5.00771 18.6425C4.84896 18.5024 4.84988 18.4287 4.85002 18.4174L4.85002 18.4167ZM15.1519 18.4011C15.1521 18.4011 15.1519 18.403 15.1506 18.4068C15.1511 18.403 15.1517 18.4011 15.1519 18.4011ZM10 14.65C8.41579 14.65 6.79212 14.9271 5.53166 15.4837C4.32137 16.0181 3.15002 16.9607 3.15002 18.4167C3.15002 19.0456 3.46758 19.5507 3.88296 19.9173C4.28772 20.2744 4.82489 20.5406 5.41372 20.741C6.59666 21.1435 8.19852 21.35 10 21.35C11.5637 21.35 13.1555 21.1407 14.3851 20.7455C14.9953 20.5494 15.5683 20.2913 16.0061 19.951C16.4404 19.6134 16.85 19.1034 16.85 18.4167C16.85 17.7271 16.5361 17.139 16.1058 16.6779C15.6797 16.2213 15.1082 15.8518 14.4821 15.562C13.2291 14.9819 11.6043 14.65 10 14.65ZM16.1539 12.4185C16.199 11.9512 16.6143 11.6089 17.0816 11.6539C18.2957 11.7709 19.4222 12.0866 20.2734 12.5788C21.0978 13.0555 21.85 13.82 21.85 14.8733C21.85 15.4192 21.6411 15.9171 21.2349 16.3126C20.852 16.6855 20.3292 16.935 19.7319 17.1043C19.2802 17.2323 18.8103 16.97 18.6823 16.5184C18.5542 16.0667 18.8165 15.5968 19.2682 15.4688C19.7158 15.3419 19.943 15.1978 20.0488 15.0947C20.1314 15.0143 20.15 14.9536 20.15 14.8733C20.15 14.7166 20.0328 14.4034 19.4224 14.0505C18.8389 13.713 17.9654 13.447 16.9185 13.3461C16.4512 13.3011 16.1089 12.8858 16.1539 12.4185ZM18 3.65002C17.5306 3.65002 17.15 4.03058 17.15 4.50002C17.15 4.96947 17.5306 5.35002 18 5.35002C18.9113 5.35002 19.65 6.08875 19.65 7.00002C19.65 7.91129 18.9113 8.65002 18 8.65002C17.5306 8.65002 17.15 9.03058 17.15 9.50002C17.15 9.96947 17.5306 10.35 18 10.35C19.8502 10.35 21.35 8.85018 21.35 7.00002C21.35 5.14987 19.8502 3.65002 18 3.65002Z" fill="#00ABB3"/>
</svg>
