<svg width="20" height="19" viewBox="0 0 20 19" fill="none" xmlns="http://www.w3.org/2000/svg">
<path fill-rule="evenodd" clip-rule="evenodd" d="M13.6009 0.898984C13.269 0.567038 12.7308 0.567038 12.3989 0.898984C12.0669 1.23093 12.0669 1.76912 12.3989 2.10107L16.9478 6.65002H5.9999C4.44839 6.65002 2.96042 7.26636 1.86333 8.36345C0.76624 9.46054 0.149902 10.9485 0.149902 12.5C0.149902 14.0515 0.76624 15.5395 1.86333 16.6366C2.96042 17.7337 4.44839 18.35 5.9999 18.35H12.9999C13.4693 18.35 13.8499 17.9695 13.8499 17.5C13.8499 17.0306 13.4693 16.65 12.9999 16.65H5.9999C4.89925 16.65 3.84369 16.2128 3.06541 15.4345C2.28713 14.6562 1.8499 13.6007 1.8499 12.5C1.8499 11.3994 2.28713 10.3438 3.06541 9.56553C3.84369 8.78726 4.89925 8.35002 5.9999 8.35002H16.9478L12.3989 12.899C12.0669 13.2309 12.0669 13.7691 12.3989 14.1011C12.7308 14.433 13.269 14.433 13.6009 14.1011L19.6009 8.10107C19.9329 7.76912 19.9329 7.23093 19.6009 6.89898L13.6009 0.898984Z" fill="#00ABB3"/>
</svg>
