<svg width="32" height="24" viewBox="0 0 32 24" fill="none" xmlns="http://www.w3.org/2000/svg">
<path d="M19.9375 7.1875H19.8631V8.0625H19.9375C20.0535 8.0625 20.1648 8.10859 20.2469 8.19064C20.3289 8.27269 20.375 8.38397 20.375 8.5V17.25C20.375 17.366 20.3289 17.4773 20.2469 17.5594C20.1648 17.6414 20.0535 17.6875 19.9375 17.6875H12.0625C11.9465 17.6875 11.8352 17.6414 11.7531 17.5594C11.6711 17.4773 11.625 17.366 11.625 17.25V8.5C11.625 8.38397 11.6711 8.27269 11.7531 8.19064C11.8352 8.10859 11.9465 8.0625 12.0625 8.0625H12.1369V7.1875H12.0625C11.7144 7.1875 11.3806 7.32578 11.1344 7.57192C10.8883 7.81806 10.75 8.1519 10.75 8.5V17.25C10.75 17.5981 10.8883 17.9319 11.1344 18.1781C11.3806 18.4242 11.7144 18.5625 12.0625 18.5625H19.9375C20.2856 18.5625 20.6194 18.4242 20.8656 18.1781C21.1117 17.9319 21.25 17.5981 21.25 17.25V8.5C21.25 8.1519 21.1117 7.81806 20.8656 7.57192C20.6194 7.32578 20.2856 7.1875 19.9375 7.1875Z" fill="#797D85"/>
<path d="M19.0625 6.3125H17.75V5H14.25V6.3125H12.9375V8.9375H19.0625V6.3125ZM18.1875 8.0625H13.8125V7.1875H15.125V5.875H16.875V7.1875H18.1875V8.0625Z" fill="#797D85"/>
<path d="M13.375 10.6875H18.625V11.5625H13.375V10.6875ZM13.375 12.875H18.625V13.75H13.375V12.875ZM13.375 15.0625H18.625V15.9375H13.375V15.0625Z" fill="#797D85"/>
</svg>
