<svg width="32" height="24" viewBox="0 0 32 24" fill="none" xmlns="http://www.w3.org/2000/svg">
<path d="M12.0003 19.3334H10.0003C9.63366 19.3334 9.31988 19.203 9.05899 18.9421C8.7981 18.6812 8.66744 18.3672 8.66699 18.0001V16.0001H10.0003V18.0001H12.0003V19.3334ZM20.0003 19.3334V18.0001H22.0003V16.0001H23.3337V18.0001C23.3337 18.3667 23.2032 18.6807 22.9423 18.9421C22.6814 19.2034 22.3674 19.3339 22.0003 19.3334H20.0003ZM16.0003 16.3334C14.667 16.3334 13.4588 15.939 12.3757 15.1501C11.2925 14.3612 10.5008 13.3112 10.0003 12.0001C10.5003 10.689 11.2921 9.63897 12.3757 8.85008C13.4592 8.06119 14.6674 7.66675 16.0003 7.66675C17.3332 7.66675 18.5417 8.06119 19.6257 8.85008C20.7097 9.63897 21.5012 10.689 22.0003 12.0001C21.5003 13.3112 20.7088 14.3612 19.6257 15.1501C18.5425 15.939 17.3341 16.3334 16.0003 16.3334ZM16.0003 15.0001C16.9781 15.0001 17.8725 14.7334 18.6837 14.2001C19.4948 13.6667 20.117 12.9334 20.5503 12.0001C20.117 11.0667 19.4948 10.3334 18.6837 9.80008C17.8725 9.26675 16.9781 9.00008 16.0003 9.00008C15.0225 9.00008 14.1281 9.26675 13.317 9.80008C12.5059 10.3334 11.8837 11.0667 11.4503 12.0001C11.8837 12.9334 12.5059 13.6667 13.317 14.2001C14.1281 14.7334 15.0225 15.0001 16.0003 15.0001ZM16.0003 14.3334C16.6448 14.3334 17.1948 14.1056 17.6503 13.6501C18.1059 13.1945 18.3337 12.6445 18.3337 12.0001C18.3337 11.3556 18.1059 10.8056 17.6503 10.3501C17.1948 9.89453 16.6448 9.66675 16.0003 9.66675C15.3559 9.66675 14.8059 9.89453 14.3503 10.3501C13.8948 10.8056 13.667 11.3556 13.667 12.0001C13.667 12.6445 13.8948 13.1945 14.3503 13.6501C14.8059 14.1056 15.3559 14.3334 16.0003 14.3334ZM16.0003 13.0001C15.7225 13.0001 15.4863 12.903 15.2917 12.7087C15.097 12.5145 14.9999 12.2783 15.0003 12.0001C15.0008 11.7219 15.0981 11.4859 15.2923 11.2921C15.4865 11.0983 15.7225 11.001 16.0003 11.0001C16.2781 10.9992 16.5143 11.0965 16.709 11.2921C16.9037 11.4876 17.0008 11.7236 17.0003 12.0001C16.9999 12.2765 16.9028 12.5127 16.709 12.7087C16.5152 12.9047 16.279 13.0019 16.0003 13.0001ZM8.66699 8.00008V6.00008C8.66699 5.63341 8.79766 5.31964 9.05899 5.05875C9.32033 4.79786 9.6341 4.66719 10.0003 4.66675H12.0003V6.00008H10.0003V8.00008H8.66699ZM22.0003 8.00008V6.00008H20.0003V4.66675H22.0003C22.367 4.66675 22.681 4.79741 22.9423 5.05875C23.2037 5.32008 23.3341 5.63386 23.3337 6.00008V8.00008H22.0003Z" fill="#797D85"/>
</svg>
