<svg width="40" height="40" viewBox="0 0 40 40" fill="none" xmlns="http://www.w3.org/2000/svg">
<rect x="0.5" y="0.5" width="39" height="39" rx="19.5" fill="white" fill-opacity="0.12"/>
<rect x="0.5" y="0.5" width="39" height="39" rx="19.5" stroke="url(#paint0_linear_1010_4713)"/>
<path d="M25.9998 12C26.1504 12 26.299 12.034 26.4346 12.0994C26.5701 12.1649 26.6892 12.2601 26.7828 12.378L26.8568 12.486L29.8568 17.486C29.9551 17.65 30.0043 17.8386 29.9986 18.0297C29.9929 18.2207 29.9326 18.4062 29.8248 18.564L29.7448 18.667L21.2148 28.2C21.0564 28.3616 20.8674 28.4899 20.6587 28.5775C20.4501 28.6651 20.2261 28.7101 19.9998 28.71C19.5998 28.71 19.2148 28.57 18.8898 28.293L18.7548 28.167L10.2548 18.667C10.1269 18.5243 10.0427 18.3479 10.0123 18.1587C9.98176 17.9696 10.0063 17.7756 10.0828 17.6L10.1428 17.485L13.1558 12.463L13.2198 12.373C13.2657 12.3162 13.3177 12.2645 13.3748 12.219L13.4638 12.155L13.5518 12.105L13.6018 12.082L13.6618 12.057L13.7708 12.025L13.8828 12.005L13.9998 12H25.9998ZM17.1138 15.943C16.8865 15.8069 16.6144 15.7665 16.3573 15.8308C16.1003 15.8951 15.8793 16.0588 15.7428 16.286L15.1428 17.286L15.0828 17.402C15.0063 17.5785 14.9823 17.7733 15.0137 17.9631C15.0451 18.1529 15.1305 18.3296 15.2598 18.472L17.2598 20.672L17.3498 20.76C17.5349 20.9184 17.7715 21.0038 18.0151 21.0001C18.2587 20.9964 18.4926 20.9039 18.6728 20.74L18.7598 20.65C18.9182 20.4649 19.0036 20.2283 18.9999 19.9847C18.9962 19.7411 18.9037 19.5072 18.7398 19.327L17.2388 17.677L17.4568 17.314L17.5118 17.211C17.6123 16.9876 17.6273 16.7351 17.5539 16.5013C17.4806 16.2676 17.324 16.0689 17.1138 15.943Z" fill="white"/>
<defs>
<linearGradient id="paint0_linear_1010_4713" x1="20" y1="0" x2="20" y2="40" gradientUnits="userSpaceOnUse">
<stop stop-color="white" stop-opacity="0.16"/>
<stop offset="1" stop-color="white" stop-opacity="0.02"/>
</linearGradient>
</defs>
</svg>
