<svg width="40" height="40" viewBox="0 0 40 40" fill="none" xmlns="http://www.w3.org/2000/svg">
<rect x="-0.000976562" y="0.000488281" width="40" height="40" rx="20" fill="url(#paint0_linear_1019_5100)"/>
<path d="M16.2418 15.3404L9.86179 16.2654L9.74879 16.2884C9.57773 16.3338 9.42178 16.4238 9.29688 16.5492C9.17198 16.6746 9.08259 16.8309 9.03785 17.0021C8.99311 17.1734 8.99462 17.3534 9.04222 17.5239C9.08982 17.6943 9.18181 17.8491 9.30879 17.9724L13.9308 22.4714L12.8408 28.8264L12.8278 28.9364C12.8173 29.1133 12.8541 29.2899 12.9342 29.4479C13.0144 29.606 13.1352 29.7399 13.2841 29.8359C13.4331 29.932 13.6049 29.9867 13.7819 29.9945C13.959 30.0023 14.135 29.963 14.2918 29.8804L19.9978 26.8804L25.6908 29.8804L25.7908 29.9264C25.9559 29.9914 26.1352 30.0114 26.3105 29.9842C26.4859 29.957 26.6508 29.8836 26.7884 29.7717C26.926 29.6597 27.0313 29.5132 27.0936 29.347C27.1559 29.1809 27.1729 29.0012 27.1428 28.8264L26.0518 22.4714L30.6758 17.9714L30.7538 17.8864C30.8652 17.7492 30.9383 17.5849 30.9655 17.4102C30.9928 17.2355 30.9732 17.0568 30.9089 16.8921C30.8445 16.7275 30.7377 16.5828 30.5993 16.4729C30.4608 16.363 30.2957 16.2917 30.1208 16.2664L23.7408 15.3404L20.8888 9.56041C20.8063 9.39295 20.6785 9.25193 20.52 9.15332C20.3615 9.0547 20.1785 9.00244 19.9918 9.00244C19.8051 9.00244 19.6221 9.0547 19.4636 9.15332C19.3051 9.25193 19.1773 9.39295 19.0948 9.56041L16.2418 15.3404Z" fill="white"/>
<defs>
<linearGradient id="paint0_linear_1019_5100" x1="19.999" y1="0.000488281" x2="19.999" y2="40.0005" gradientUnits="userSpaceOnUse">
<stop stop-color="#2BFFFF"/>
<stop offset="1" stop-color="#2BFFFF" stop-opacity="0.41"/>
</linearGradient>
</defs>
</svg>
